<?xml version="1.0" encoding="UTF-8" standalone="no"?>
<!DOCTYPE svg PUBLIC "-//W3C//DTD SVG 1.1//EN" "http://www.w3.org/Graphics/SVG/1.1/DTD/svg11.dtd">
<svg xmlns="http://www.w3.org/2000/svg" version="1.1" viewBox="0.00 0.00 2422.00 469.00">
<path fill="#000000" d="
  M 292.57 12.00
  Q 403.54 12.02 415.90 12.04
  Q 425.59 12.06 429.51 13.40
  Q 436.51 15.78 441.83 20.92
  Q 444.63 23.63 449.81 32.41
  Q 501.06 119.44 552.25 206.51
  Q 558.10 216.46 559.33 220.51
  Q 561.81 228.68 560.48 236.60
  Q 559.88 240.20 558.68 243.28
  A 6.16 0.21 -69.1 0 1 556.81 247.71
  Q 500.89 342.96 447.07 434.04
  Q 440.58 445.03 429.09 448.54
  Q 424.01 450.10 411.25 450.10
  Q 351.87 450.10 292.48 450.09
  Q 233.10 450.08 173.72 450.05
  Q 160.96 450.05 155.88 448.48
  Q 144.39 444.97 137.91 433.98
  Q 84.12 342.88 28.24 247.60
  A 6.16 0.21 69.1 0 1 26.37 243.17
  Q 25.17 240.09 24.58 236.49
  Q 23.25 228.57 25.73 220.40
  Q 26.96 216.35 32.82 206.40
  Q 84.04 119.36 135.33 32.35
  Q 140.51 23.57 143.31 20.86
  Q 148.63 15.72 155.64 13.34
  Q 159.56 12.01 169.25 11.99
  Q 181.61 11.98 292.57 12.00
  Z
  M 97.25 230.96
  Q 97.25 260.13 97.31 262.67
  A 0.46 0.46 0.0 0 0 97.79 263.12
  Q 107.24 262.69 118.00 265.35
  Q 156.19 274.80 176.23 309.01
  Q 194.34 339.93 200.84 351.10
  Q 207.07 361.82 211.79 367.13
  C 225.34 382.39 244.41 392.63 264.29 396.89
  Q 278.02 399.83 292.43 399.83
  Q 306.83 399.83 320.56 396.89
  C 340.44 392.64 359.52 382.40 373.07 367.14
  Q 377.79 361.83 384.02 351.11
  Q 390.52 339.94 408.63 309.02
  Q 428.68 274.81 466.87 265.37
  Q 477.63 262.71 487.08 263.14
  A 0.46 0.46 0.0 0 0 487.56 262.69
  Q 487.62 260.15 487.62 230.98
  Q 487.62 201.80 487.56 199.26
  A 0.46 0.46 0.0 0 0 487.08 198.81
  Q 477.63 199.24 466.87 196.58
  Q 428.68 187.13 408.64 152.92
  Q 390.53 122.00 384.03 110.83
  Q 377.80 100.11 373.08 94.80
  C 359.53 79.54 340.46 69.30 320.58 65.04
  Q 306.85 62.11 292.44 62.10
  Q 278.04 62.10 264.31 65.04
  C 244.43 69.30 225.36 79.53 211.80 94.79
  Q 207.08 100.10 200.85 110.82
  Q 194.35 121.99 176.24 152.91
  Q 156.19 187.12 118.00 196.56
  Q 107.24 199.22 97.79 198.79
  A 0.46 0.46 0.0 0 0 97.31 199.24
  Q 97.25 201.78 97.25 230.96
  Z"
/>
<path fill="#000000" d="
  M 1470.80 366.05
  L 1416.46 366.05
  A 1.01 1.01 0.0 0 1 1415.45 365.04
  L 1415.45 63.36
  A 1.01 1.01 0.0 0 1 1416.46 62.35
  L 1470.80 62.35
  A 1.01 1.01 0.0 0 1 1471.81 63.36
  L 1471.81 365.04
  A 1.01 1.01 0.0 0 1 1470.80 366.05
  Z"
/>
<rect fill="#000000" x="1514.48" y="62.31" width="56.32" height="303.70" rx="0.78"/>
<rect fill="#000000" x="1612.49" y="62.33" width="56.32" height="44.50" rx="0.31"/>
<path fill="#000000" d="
  M 2006.81 210.57
  L 2006.81 365.48
  A 0.54 0.54 0.0 0 1 2006.27 366.02
  L 1951.72 366.02
  Q 1950.55 366.02 1950.55 364.85
  L 1950.55 63.62
  A 1.31 1.31 0.0 0 1 1951.86 62.31
  L 2006.31 62.31
  Q 2006.80 62.31 2006.80 62.80
  L 2006.80 169.79
  Q 2006.80 171.59 2008.03 170.27
  C 2026.52 150.27 2052.23 142.24 2079.28 143.17
  C 2108.49 144.18 2134.65 154.78 2146.31 183.57
  Q 2151.03 195.22 2152.43 208.38
  C 2152.89 212.79 2153.43 218.43 2153.44 223.56
  Q 2153.51 283.28 2153.44 365.23
  Q 2153.44 366.02 2152.65 366.02
  L 2097.52 366.02
  A 0.37 0.37 0.0 0 1 2097.15 365.65
  Q 2097.17 294.89 2097.15 224.01
  C 2097.15 220.90 2096.45 216.99 2096.11 214.81
  Q 2093.58 198.73 2079.67 192.02
  Q 2074.01 189.28 2064.77 188.65
  C 2045.15 187.30 2026.26 194.92 2011.03 207.05
  Q 2008.82 208.82 2007.23 209.82
  Q 2006.81 210.08 2006.81 210.57
  Z"
/>
<rect fill="#000000" x="714.86" y="62.45" width="55.84" height="44.36" rx="0.44"/>
<path fill="#000000" d="
  M 1111.64 188.19
  Q 1111.68 229.16 1111.64 289.51
  C 1111.64 302.09 1114.60 315.03 1127.44 319.65
  Q 1132.03 321.31 1144.28 321.38
  Q 1150.33 321.41 1161.27 321.37
  A 0.34 0.34 0.0 0 1 1161.61 321.71
  L 1161.61 364.77
  A 1.20 1.20 0.0 0 1 1160.41 365.97
  Q 1135.25 366.07 1113.50 365.96
  C 1105.09 365.92 1096.26 365.25 1088.59 362.77
  Q 1063.25 354.58 1057.40 326.38
  Q 1055.11 315.32 1055.12 304.75
  Q 1055.44 111.10 1055.44 107.79
  A 0.83 0.83 0.0 0 1 1056.27 106.97
  L 1095.71 106.97
  A 1.46 1.46 0.0 0 1 1097.13 108.09
  L 1105.21 142.20
  A 1.04 1.04 0.0 0 0 1106.22 143.00
  L 1160.45 143.00
  Q 1161.58 143.00 1161.58 144.13
  L 1161.58 187.27
  A 0.34 0.33 -90.0 0 1 1161.25 187.61
  L 1112.22 187.61
  Q 1111.64 187.61 1111.64 188.19
  Z"
/>
<path fill="#000000" d="
  M 766.96 150.98
  C 769.28 151.07 770.25 149.54 770.14 147.42
  Q 770.13 147.22 770.31 147.30
  L 770.55 147.42
  Q 770.59 147.44 770.59 147.48
  L 770.84 365.67
  A 0.35 0.35 0.0 0 1 770.49 366.02
  L 715.41 366.02
  Q 714.47 366.02 714.47 365.09
  L 714.47 143.70
  Q 714.47 143.04 715.14 143.04
  Q 729.11 143.20 751.26 143.17
  C 755.56 143.16 757.56 145.82 760.64 148.89
  Q 762.55 150.80 766.96 150.98
  Z"
/>
<path fill="#000000" d="
  M 869.81 210.56
  L 869.81 365.23
  A 0.79 0.79 0.0 0 1 869.02 366.02
  L 814.55 366.02
  Q 813.47 366.02 813.47 364.94
  L 813.47 144.33
  A 1.22 1.22 0.0 0 1 814.69 143.11
  L 855.69 143.11
  A 1.67 1.67 0.0 0 1 857.32 144.42
  L 863.98 175.00
  Q 864.13 175.69 864.63 175.19
  C 881.02 158.38 902.69 146.25 926.25 143.74
  Q 944.96 141.74 963.08 145.79
  Q 973.20 148.05 981.86 152.63
  C 1000.39 162.43 1010.49 180.07 1014.20 200.35
  C 1016.58 213.29 1016.43 223.34 1016.43 240.25
  Q 1016.44 328.24 1016.44 365.02
  Q 1016.44 366.02 1015.45 366.02
  L 960.56 366.02
  A 0.41 0.41 0.0 0 1 960.15 365.61
  Q 960.17 292.85 960.15 224.01
  C 960.15 220.91 959.51 217.31 959.11 214.80
  Q 956.51 198.60 942.71 192.09
  Q 935.32 188.61 924.38 188.50
  Q 908.96 188.34 895.01 194.47
  Q 883.50 199.52 874.03 207.04
  Q 871.77 208.84 870.21 209.84
  Q 869.81 210.09 869.81 210.56
  Z"
/>
<path fill="#000000" d="
  M 1234.44 274.82
  Q 1233.83 293.21 1246.41 305.46
  C 1255.11 313.93 1268.72 318.19 1281.14 319.88
  C 1284.21 320.29 1290.46 321.15 1295.19 321.26
  Q 1332.80 322.17 1370.29 315.12
  A 0.61 0.61 0.0 0 1 1371.02 315.72
  L 1371.02 358.71
  Q 1371.02 359.58 1370.17 359.76
  Q 1355.02 362.85 1338.30 364.26
  Q 1329.13 365.03 1326.06 365.29
  C 1323.78 365.49 1321.55 365.27 1319.66 365.37
  C 1299.83 366.50 1279.80 366.21 1260.42 362.37
  C 1242.57 358.83 1224.97 351.86 1211.46 340.35
  C 1181.06 314.44 1175.94 272.98 1178.59 235.77
  Q 1179.74 219.65 1184.39 204.64
  Q 1187.66 194.11 1193.01 184.98
  C 1216.24 145.32 1266.20 139.05 1308.03 145.00
  Q 1331.30 148.31 1349.78 161.25
  C 1365.64 172.35 1375.87 190.79 1380.16 209.64
  Q 1382.00 217.71 1382.56 222.05
  Q 1385.91 248.24 1382.25 274.03
  A 0.32 0.30 -85.6 0 1 1381.95 274.30
  L 1234.98 274.30
  Q 1234.45 274.30 1234.44 274.82
  Z
  M 1264.24 189.72
  C 1244.12 196.11 1235.40 214.73 1234.39 234.61
  Q 1234.36 235.19 1234.94 235.19
  L 1328.81 235.19
  Q 1329.36 235.19 1329.38 234.64
  Q 1329.63 226.76 1327.82 218.25
  C 1324.00 200.26 1310.96 189.88 1293.27 187.84
  C 1283.63 186.73 1273.39 186.82 1264.24 189.72
  Z"
/>
<rect fill="#000000" x="1612.47" y="142.96" width="56.34" height="223.04" rx="0.59"/>
<path fill="#000000" d="
  M 1767.80 355.99
  L 1767.80 446.30
  Q 1767.80 446.65 1767.46 446.65
  L 1712.39 446.65
  A 0.92 0.91 -90.0 0 1 1711.48 445.73
  L 1711.48 152.78
  Q 1711.48 152.09 1712.16 151.95
  Q 1758.87 142.81 1806.82 143.12
  C 1835.95 143.30 1865.85 148.41 1888.59 167.89
  C 1908.59 185.02 1917.00 210.43 1918.57 236.30
  C 1919.85 257.37 1918.54 278.61 1912.77 299.00
  C 1903.67 331.13 1882.16 353.80 1849.26 361.77
  Q 1828.73 366.75 1808.83 365.74
  Q 1787.78 364.68 1768.45 355.58
  A 0.46 0.45 12.5 0 0 1767.80 355.99
  Z
  M 1859.53 221.15
  C 1852.62 199.60 1834.51 189.19 1812.73 188.61
  Q 1793.38 188.10 1776.57 190.08
  Q 1771.98 190.62 1768.31 191.38
  Q 1767.81 191.48 1767.81 192.00
  L 1767.81 307.48
  Q 1767.81 308.07 1768.35 308.28
  Q 1769.29 308.66 1774.22 310.92
  Q 1793.22 319.61 1814.54 319.23
  C 1844.23 318.70 1858.06 298.11 1861.86 271.11
  Q 1864.12 255.05 1863.16 240.32
  Q 1862.68 232.95 1860.31 223.32
  C 1860.07 222.35 1859.77 221.91 1859.53 221.15
  Z"
/>
<path fill="#000000" d="
  M 2284.24 301.62
  Q 2284.80 302.01 2285.32 301.74
  Q 2285.69 301.54 2285.88 300.99
  Q 2316.78 210.36 2339.80 144.05
  A 1.55 1.55 0.0 0 1 2341.27 143.00
  L 2396.97 143.00
  A 0.91 0.91 0.0 0 1 2397.83 144.20
  Q 2397.05 146.48 2395.96 149.17
  Q 2312.38 356.29 2304.38 376.13
  Q 2296.72 395.07 2283.16 413.18
  Q 2261.09 442.64 2227.79 458.58
  A 0.71 0.70 59.2 0 1 2226.90 458.35
  L 2200.72 421.31
  Q 2200.31 420.73 2200.95 420.44
  C 2224.84 409.32 2243.02 392.19 2254.01 368.13
  Q 2254.34 367.40 2254.19 366.87
  Q 2254.08 366.48 2253.73 365.56
  Q 2192.86 205.58 2175.68 160.65
  Q 2172.58 152.55 2169.49 143.73
  A 0.55 0.55 0.0 0 1 2170.01 143.00
  L 2227.19 143.00
  A 1.85 1.85 0.0 0 1 2228.93 144.22
  Q 2235.75 163.22 2243.15 184.31
  Q 2281.79 294.43 2283.69 299.90
  Q 2283.91 300.53 2283.94 300.85
  Q 2283.99 301.45 2284.24 301.62
  Z"
/>
</svg>
