<?xml version="1.0" encoding="UTF-8" standalone="no"?>
<!DOCTYPE svg PUBLIC "-//W3C//DTD SVG 1.1//EN" "http://www.w3.org/Graphics/SVG/1.1/DTD/svg11.dtd">
<svg xmlns="http://www.w3.org/2000/svg" version="1.1" viewBox="0.00 0.00 2422.00 469.00">
<path fill="#ffffff" d="
  M 292.53 11.94
  Q 351.99 11.94 411.44 11.97
  Q 424.82 11.98 429.32 13.40
  Q 436.23 15.59 441.47 20.75
  Q 444.65 23.89 449.58 32.23
  Q 530.66 169.62 556.00 212.98
  Q 560.86 221.29 560.86 231.01
  Q 560.86 240.73 556.00 249.04
  Q 530.65 292.40 449.55 429.77
  Q 444.62 438.11 441.44 441.25
  Q 436.20 446.41 429.29 448.60
  Q 424.79 450.02 411.40 450.02
  Q 351.95 450.04 292.50 450.04
  Q 233.05 450.04 173.59 450.01
  Q 160.21 450.00 155.71 448.58
  Q 148.80 446.39 143.56 441.23
  Q 140.38 438.09 135.45 429.75
  Q 54.37 292.36 29.03 249.00
  Q 24.17 240.68 24.17 230.97
  Q 24.17 221.25 29.03 212.94
  Q 54.38 169.58 135.48 32.20
  Q 140.41 23.86 143.59 20.72
  Q 148.83 15.57 155.74 13.38
  Q 160.24 11.96 173.63 11.95
  Q 233.08 11.93 292.53 11.94
  Z
  M 97.24 230.95
  Q 97.24 260.60 97.27 262.52
  A 0.64 0.64 0.0 0 0 97.95 263.14
  Q 105.78 262.70 115.32 264.75
  Q 149.47 272.11 169.87 299.47
  Q 173.30 304.07 180.55 316.44
  Q 199.31 348.45 201.36 351.98
  Q 207.08 361.81 211.15 366.35
  C 232.28 389.90 261.12 399.81 292.43 399.82
  C 323.74 399.82 352.58 389.91 373.71 366.35
  Q 377.78 361.82 383.50 351.99
  Q 385.55 348.46 404.32 316.45
  Q 411.57 304.08 415.00 299.48
  Q 435.40 272.12 469.55 264.77
  Q 479.09 262.72 486.92 263.16
  A 0.64 0.64 0.0 0 0 487.60 262.54
  Q 487.63 260.62 487.63 230.97
  Q 487.63 201.32 487.60 199.40
  A 0.64 0.64 0.0 0 0 486.92 198.78
  Q 479.09 199.22 469.55 197.17
  Q 435.40 189.81 415.00 162.45
  Q 411.57 157.85 404.32 145.48
  Q 385.56 113.47 383.51 109.94
  Q 377.79 100.11 373.72 95.57
  C 352.59 72.02 323.75 62.11 292.44 62.11
  C 261.13 62.10 232.30 72.01 211.16 95.57
  Q 207.09 100.10 201.37 109.93
  Q 199.32 113.46 180.56 145.47
  Q 173.31 157.84 169.88 162.44
  Q 149.47 189.80 115.32 197.16
  Q 105.78 199.21 97.95 198.77
  A 0.64 0.64 0.0 0 0 97.28 199.39
  Q 97.24 201.30 97.24 230.95
  Z"
/>
<path fill="#ffffff" d="
  M 1416.43 62.32
  L 1470.87 62.32
  A 0.94 0.94 0.0 0 1 1471.81 63.26
  L 1471.81 365.10
  A 0.94 0.94 0.0 0 1 1470.87 366.04
  L 1416.43 366.04
  A 0.94 0.94 0.0 0 1 1415.49 365.10
  L 1415.49 63.26
  A 0.94 0.94 0.0 0 1 1416.43 62.32
  Z"
/>
<path fill="#ffffff" d="
  M 1515.29 62.32
  L 1569.99 62.32
  A 0.81 0.81 0.0 0 1 1570.80 63.13
  L 1570.80 365.22
  A 0.81 0.81 0.0 0 1 1569.99 366.03
  L 1515.29 366.03
  A 0.81 0.81 0.0 0 1 1514.48 365.22
  L 1514.48 63.13
  A 0.81 0.81 0.0 0 1 1515.29 62.32
  Z"
/>
<rect fill="#ffffff" x="1612.48" y="62.32" width="56.32" height="44.52" rx="0.37"/>
<path fill="#ffffff" d="
  M 2006.80 170.19
  Q 2006.80 171.57 2007.74 170.56
  C 2019.80 157.51 2036.53 148.26 2053.97 145.03
  Q 2078.82 140.43 2102.49 146.42
  Q 2139.04 155.68 2149.28 192.23
  C 2152.58 204.02 2153.41 215.20 2153.42 228.72
  Q 2153.47 268.09 2153.45 365.24
  Q 2153.45 366.02 2152.68 366.02
  L 2097.76 366.02
  Q 2097.19 366.02 2097.19 365.45
  Q 2097.14 342.16 2097.17 224.51
  Q 2097.17 219.59 2095.78 213.00
  C 2092.07 195.42 2078.22 188.51 2061.29 188.49
  Q 2041.00 188.46 2023.27 198.82
  Q 2014.26 204.09 2007.17 210.01
  Q 2006.81 210.31 2006.81 210.79
  L 2006.81 365.61
  A 0.41 0.40 -0.0 0 1 2006.40 366.01
  L 1951.61 366.01
  A 1.11 1.11 0.0 0 1 1950.50 364.90
  L 1950.50 63.15
  Q 1950.50 62.31 1951.34 62.31
  L 2006.34 62.31
  Q 2006.80 62.31 2006.80 62.77
  L 2006.80 170.19
  Z"
/>
<rect fill="#ffffff" x="-27.93" y="-22.18" transform="translate(742.79,84.63) rotate(0.1)" width="55.86" height="44.36" rx="0.46"/>
<path fill="#ffffff" d="
  M 1111.71 188.14
  Q 1111.60 219.63 1111.69 288.26
  C 1111.70 301.00 1113.42 313.51 1126.55 319.39
  Q 1131.20 321.47 1142.85 321.47
  Q 1150.56 321.47 1161.16 321.34
  A 0.44 0.44 0.0 0 1 1161.61 321.78
  L 1161.61 364.78
  Q 1161.61 365.99 1160.41 365.99
  Q 1128.49 366.04 1114.53 366.01
  C 1103.77 365.98 1092.90 365.01 1083.06 360.63
  C 1063.24 351.81 1056.58 332.10 1055.47 311.88
  Q 1055.37 310.02 1055.36 295.62
  Q 1055.27 195.28 1055.45 107.83
  Q 1055.45 106.97 1056.32 106.97
  L 1095.71 106.97
  A 1.46 1.45 -6.5 0 1 1097.13 108.09
  L 1105.24 142.35
  A 0.85 0.85 0.0 0 0 1106.07 143.00
  L 1160.45 143.00
  Q 1161.57 143.00 1161.57 144.12
  L 1161.57 187.31
  A 0.32 0.32 0.0 0 1 1161.25 187.63
  L 1112.23 187.63
  Q 1111.71 187.63 1111.71 188.14
  Z"
/>
<path fill="#ffffff" d="
  M 766.98 150.97
  C 769.30 150.91 770.03 149.47 770.21 147.48
  Q 770.22 147.33 770.37 147.33
  L 770.66 147.33
  Q 770.80 147.33 770.80 147.47
  L 770.80 365.75
  A 0.27 0.27 0.0 0 1 770.53 366.02
  L 715.30 366.02
  Q 714.48 366.02 714.48 365.20
  L 714.48 143.73
  A 0.69 0.68 0.0 0 1 715.17 143.05
  Q 733.99 143.20 751.50 143.17
  C 758.48 143.16 759.31 151.19 766.98 150.97
  Z"
/>
<path fill="#ffffff" d="
  M 869.81 210.56
  L 869.81 365.23
  Q 869.81 366.01 869.02 366.01
  L 814.46 366.01
  Q 813.48 366.01 813.48 365.03
  L 813.48 144.09
  Q 813.48 143.10 814.47 143.10
  L 855.79 143.10
  A 1.55 1.53 83.7 0 1 857.29 144.31
  L 864.00 175.02
  A 0.42 0.42 0.0 0 0 864.71 175.22
  Q 879.95 159.44 900.30 150.54
  C 920.38 141.76 944.49 141.09 965.66 146.41
  C 995.57 153.92 1011.21 176.36 1015.09 205.73
  C 1015.90 211.84 1016.44 218.51 1016.44 224.96
  Q 1016.46 259.81 1016.45 365.16
  A 0.86 0.85 0.0 0 1 1015.59 366.01
  L 960.74 366.01
  Q 960.20 366.01 960.19 365.46
  Q 960.15 337.46 960.17 223.76
  Q 960.17 217.65 958.06 210.27
  C 954.13 196.53 943.36 190.06 929.78 188.79
  C 909.58 186.92 890.43 194.20 874.60 206.61
  Q 871.95 208.68 870.20 209.84
  Q 869.81 210.09 869.81 210.56
  Z"
/>
<path fill="#ffffff" d="
  M 1234.32 274.80
  C 1234.19 312.90 1270.39 321.13 1300.73 321.37
  Q 1335.42 321.64 1370.54 315.10
  A 0.40 0.40 0.0 0 1 1371.01 315.49
  L 1371.01 359.07
  Q 1371.01 359.65 1370.44 359.77
  Q 1355.74 362.80 1334.82 364.55
  Q 1327.59 365.15 1322.69 365.33
  Q 1316.71 365.54 1316.64 365.55
  C 1280.63 367.30 1239.67 364.26 1211.18 340.05
  C 1194.59 325.95 1184.85 305.96 1180.86 284.23
  Q 1175.20 253.51 1180.43 221.16
  C 1183.83 200.10 1192.91 179.23 1209.43 165.44
  C 1230.11 148.18 1256.28 143.09 1283.52 143.08
  C 1305.84 143.07 1328.12 147.13 1346.97 159.34
  C 1371.03 174.93 1381.11 202.39 1383.42 229.76
  Q 1385.29 251.93 1382.32 273.80
  A 0.59 0.57 3.9 0 1 1381.74 274.29
  L 1234.83 274.29
  Q 1234.32 274.29 1234.32 274.80
  Z
  M 1329.22 235.19
  A 0.12 0.11 0.0 0 0 1329.34 235.08
  C 1329.98 216.26 1323.99 198.07 1305.22 190.84
  Q 1299.12 188.49 1293.24 187.86
  C 1283.89 186.86 1274.49 186.86 1266.06 189.18
  Q 1243.34 195.42 1236.71 220.26
  Q 1234.70 227.79 1234.38 234.62
  Q 1234.36 235.19 1234.93 235.19
  L 1329.22 235.19
  Z"
/>
<rect fill="#ffffff" x="1612.48" y="142.98" width="56.32" height="223.02" rx="0.56"/>
<path fill="#ffffff" d="
  M 1767.80 356.06
  L 1767.80 446.05
  Q 1767.80 446.65 1767.20 446.65
  L 1712.23 446.65
  A 0.73 0.73 0.0 0 1 1711.50 445.92
  L 1711.50 152.75
  A 0.81 0.81 0.0 0 1 1712.15 151.96
  Q 1758.31 142.90 1806.30 143.10
  C 1830.10 143.20 1853.60 146.61 1874.49 158.03
  C 1904.28 174.33 1917.09 204.97 1918.67 237.76
  C 1919.79 261.20 1918.05 284.88 1910.30 306.50
  Q 1895.62 347.48 1854.76 360.24
  Q 1834.12 366.68 1809.39 365.75
  C 1794.72 365.19 1780.99 361.22 1768.47 355.62
  Q 1767.80 355.32 1767.80 356.06
  Z
  M 1768.93 308.41
  Q 1793.36 321.09 1819.91 318.89
  C 1842.17 317.05 1855.08 301.04 1860.06 280.37
  C 1863.07 267.90 1863.95 253.83 1863.21 241.19
  C 1861.34 209.37 1844.77 189.57 1812.02 188.60
  Q 1789.81 187.94 1768.69 191.18
  Q 1767.80 191.32 1767.80 192.22
  L 1767.80 307.54
  Q 1767.80 308.10 1768.36 308.22
  Q 1768.71 308.29 1768.93 308.41
  Z"
/>
<path fill="#ffffff" d="
  M 2284.61 301.84
  A 0.58 0.57 33.8 0 0 2285.59 301.65
  L 2339.72 144.04
  A 1.55 1.54 -80.4 0 1 2341.18 143.00
  L 2396.92 143.00
  A 1.00 0.99 10.9 0 1 2397.85 144.36
  Q 2378.52 192.43 2303.71 377.70
  Q 2294.85 399.64 2277.11 420.63
  Q 2256.53 444.97 2227.62 458.62
  A 0.50 0.49 60.1 0 1 2227.00 458.45
  L 2200.71 421.27
  Q 2200.39 420.81 2200.89 420.55
  Q 2207.80 417.00 2208.75 416.48
  Q 2239.37 399.84 2253.95 368.44
  Q 2254.41 367.47 2253.99 366.37
  Q 2175.06 158.73 2169.46 144.12
  Q 2169.03 142.99 2170.24 142.99
  L 2226.78 142.99
  Q 2228.56 142.99 2229.15 144.66
  Q 2254.20 215.50 2282.96 297.88
  Q 2282.97 297.92 2283.45 299.60
  Q 2283.83 300.93 2284.61 301.84
  Z"
/>
</svg>
